<?xml version="1.0" encoding="UTF-8"?>
<svg xmlns="http://www.w3.org/2000/svg" width="275" height="68" viewBox="0 0 275 68" fill="none">
  <path d="M5.8808 63.4026C5.2406 63.4026 4.6499 63.2541 4.1087 62.9571C3.5741 62.6535 3.1484 62.2344 2.8316 61.6998C2.5214 61.1586 2.3663 60.5514 2.3663 59.8782C2.3663 59.205 2.5214 58.6011 2.8316 58.0665C3.1484 57.5319 3.5741 57.1161 4.1087 56.8191C4.6499 56.5155 5.2406 56.3637 5.8808 56.3637C6.5276 56.3637 7.1183 56.5155 7.6529 56.8191C8.1941 57.1161 8.6198 57.5319 8.93 58.0665C9.2402 58.6011 9.3953 59.205 9.3953 59.8782C9.3953 60.5514 9.2402 61.1586 8.93 61.6998C8.6198 62.2344 8.1941 62.6535 7.6529 62.9571C7.1183 63.2541 6.5276 63.4026 5.8808 63.4026ZM5.8808 62.4225C6.3362 62.4225 6.7421 62.3202 7.0985 62.1156C7.4549 61.9044 7.7321 61.6074 7.9301 61.2246C8.1347 60.8352 8.237 60.3864 8.237 59.8782C8.237 59.37 8.1347 58.9245 7.9301 58.5417C7.7321 58.1589 7.4549 57.8652 7.0985 57.6606C6.7421 57.456 6.3362 57.3537 5.8808 57.3537C5.4254 57.3537 5.0195 57.456 4.6631 57.6606C4.3067 57.8652 4.0262 58.1589 3.8216 58.5417C3.6236 58.9245 3.5246 59.37 3.5246 59.8782C3.5246 60.3864 3.6236 60.8352 3.8216 61.2246C4.0262 61.6074 4.3067 61.9044 4.6631 62.1156C5.0195 62.3202 5.4254 62.4225 5.8808 62.4225ZM16.5251 57.7893C16.9541 57.7893 17.3369 57.8784 17.6735 58.0566C18.0167 58.2348 18.284 58.4988 18.4754 58.8486C18.6668 59.1984 18.7625 59.6208 18.7625 60.1158V63.3333H17.6438V60.2841C17.6438 59.7957 17.5217 59.4228 17.2775 59.1654C17.0333 58.9014 16.7 58.7694 16.2776 58.7694C15.8552 58.7694 15.5186 58.9014 15.2678 59.1654C15.0236 59.4228 14.9015 59.7957 14.9015 60.2841V63.3333H13.7729V57.8784H14.9015V58.5021C15.0863 58.2777 15.3206 58.1028 15.6044 57.9774C15.8948 57.852 16.2017 57.7893 16.5251 57.7893ZM28.4686 60.4722C28.4686 60.6768 28.4554 60.8616 28.429 61.0266H24.2611C24.2941 61.4622 24.4558 61.812 24.7462 62.076C25.0366 62.34 25.393 62.472 25.8154 62.472C26.4226 62.472 26.8516 62.2179 27.1024 61.7097H28.3201C28.1551 62.2113 27.8548 62.6238 27.4192 62.9472C26.9902 63.264 26.4556 63.4224 25.8154 63.4224C25.294 63.4224 24.8254 63.3069 24.4096 63.0759C24.0004 62.8383 23.677 62.5083 23.4394 62.0859C23.2084 61.6569 23.0929 61.1619 23.0929 60.6009C23.0929 60.0399 23.2051 59.5482 23.4295 59.1258C23.6605 58.6968 23.9806 58.3668 24.3898 58.1358C24.8056 57.9048 25.2808 57.7893 25.8154 57.7893C26.3302 57.7893 26.7889 57.9015 27.1915 58.1259C27.5941 58.3503 27.9076 58.6671 28.132 59.0763C28.3564 59.4789 28.4686 59.9442 28.4686 60.4722ZM27.2905 60.1158C27.2839 59.7 27.1354 59.3667 26.845 59.1159C26.5546 58.8651 26.1949 58.7397 25.7659 58.7397C25.3765 58.7397 25.0432 58.8651 24.766 59.1159C24.4888 59.3601 24.3238 59.6934 24.271 60.1158H27.2905ZM40.6649 63.4224C40.2359 63.4224 39.8498 63.3465 39.5066 63.1947C39.17 63.0363 38.9027 62.8251 38.7047 62.5611C38.5067 62.2905 38.4011 61.9902 38.3879 61.6602H39.5561C39.5759 61.8912 39.6848 62.0859 39.8828 62.2443C40.0874 62.3961 40.3415 62.472 40.6451 62.472C40.9619 62.472 41.2061 62.4126 41.3777 62.2938C41.5559 62.1684 41.645 62.01 41.645 61.8186C41.645 61.614 41.546 61.4622 41.348 61.3632C41.1566 61.2642 40.8497 61.1553 40.4273 61.0365C40.0181 60.9243 39.6848 60.8154 39.4274 60.7098C39.17 60.6042 38.9456 60.4425 38.7542 60.2247C38.5694 60.0069 38.477 59.7198 38.477 59.3634C38.477 59.073 38.5628 58.809 38.7344 58.5714C38.906 58.3272 39.1502 58.1358 39.467 57.9972C39.7904 57.8586 40.16 57.7893 40.5758 57.7893C41.1962 57.7893 41.6945 57.9477 42.0707 58.2645C42.4535 58.5747 42.6581 59.0004 42.6845 59.5416H41.5559C41.5361 59.2974 41.4371 59.1027 41.2589 58.9575C41.0807 58.8123 40.8398 58.7397 40.5362 58.7397C40.2392 58.7397 40.0115 58.7958 39.8531 58.908C39.6947 59.0202 39.6155 59.1687 39.6155 59.3535C39.6155 59.4987 39.6683 59.6208 39.7739 59.7198C39.8795 59.8188 40.0082 59.898 40.16 59.9574C40.3118 60.0102 40.5362 60.0795 40.8332 60.1653C41.2292 60.2709 41.5526 60.3798 41.8034 60.492C42.0608 60.5976 42.2819 60.756 42.4667 60.9672C42.6515 61.1784 42.7472 61.4589 42.7538 61.8087C42.7538 62.1189 42.668 62.3961 42.4964 62.6403C42.3248 62.8845 42.0806 63.0759 41.7638 63.2145C41.4536 63.3531 41.0873 63.4224 40.6649 63.4224ZM49.6064 63.4224C49.0916 63.4224 48.6263 63.3069 48.2105 63.0759C47.7947 62.8383 47.468 62.5083 47.2304 62.0859C46.9928 61.6569 46.874 61.1619 46.874 60.6009C46.874 60.0465 46.9961 59.5548 47.2403 59.1258C47.4845 58.6968 47.8178 58.3668 48.2402 58.1358C48.6626 57.9048 49.1345 57.7893 49.6559 57.7893C50.1773 57.7893 50.6492 57.9048 51.0716 58.1358C51.494 58.3668 51.8273 58.6968 52.0715 59.1258C52.3157 59.5548 52.4378 60.0465 52.4378 60.6009C52.4378 61.1553 52.3124 61.647 52.0616 62.076C51.8108 62.505 51.4676 62.8383 51.032 63.0759C50.603 63.3069 50.1278 63.4224 49.6064 63.4224ZM49.6064 62.4423C49.8968 62.4423 50.1674 62.373 50.4182 62.2344C50.6756 62.0958 50.8835 61.8879 51.0419 61.6107C51.2003 61.3335 51.2795 60.9969 51.2795 60.6009C51.2795 60.2049 51.2036 59.8716 51.0518 59.601C50.9 59.3238 50.6987 59.1159 50.4479 58.9773C50.1971 58.8387 49.9265 58.7694 49.6361 58.7694C49.3457 58.7694 49.0751 58.8387 48.8243 58.9773C48.5801 59.1159 48.3854 59.3238 48.2402 59.601C48.095 59.8716 48.0224 60.2049 48.0224 60.6009C48.0224 61.1883 48.1709 61.6437 48.4679 61.9671C48.7715 62.2839 49.151 62.4423 49.6064 62.4423ZM57.9491 56.0073V63.3333H56.8205V56.0073H57.9491ZM67.6379 57.8784V63.3333H66.5093V62.6898C66.3311 62.9142 66.0968 63.0924 65.8064 63.2244C65.5226 63.3498 65.219 63.4125 64.8956 63.4125C64.4666 63.4125 64.0805 63.3234 63.7373 63.1452C63.4007 62.967 63.1334 62.703 62.9354 62.3532C62.744 62.0034 62.6483 61.581 62.6483 61.086V57.8784H63.767V60.9177C63.767 61.4061 63.8891 61.7823 64.1333 62.0463C64.3775 62.3037 64.7108 62.4324 65.1332 62.4324C65.5556 62.4324 65.8889 62.3037 66.1331 62.0463C66.3839 61.7823 66.5093 61.4061 66.5093 60.9177V57.8784H67.6379ZM73.7107 58.7991V61.8186C73.7107 62.0232 73.7569 62.1717 73.8493 62.2641C73.9483 62.3499 74.1133 62.3928 74.3443 62.3928H75.0373V63.3333H74.1463C73.6381 63.3333 73.2487 63.2145 72.9781 62.9769C72.7075 62.7393 72.5722 62.3532 72.5722 61.8186V58.7991H71.9287V57.8784H72.5722V56.5221H73.7107V57.8784H75.0373V58.7991H73.7107ZM79.9187 57.1557C79.7141 57.1557 79.5425 57.0864 79.4039 56.9478C79.2653 56.8092 79.196 56.6376 79.196 56.433C79.196 56.2284 79.2653 56.0568 79.4039 55.9182C79.5425 55.7796 79.7141 55.7103 79.9187 55.7103C80.1167 55.7103 80.285 55.7796 80.4236 55.9182C80.5622 56.0568 80.6315 56.2284 80.6315 56.433C80.6315 56.6376 80.5622 56.8092 80.4236 56.9478C80.285 57.0864 80.1167 57.1557 79.9187 57.1557ZM80.4731 57.8784V63.3333H79.3445V57.8784H80.4731ZM87.588 63.4224C87.0732 63.4224 86.6079 63.3069 86.1921 63.0759C85.7763 62.8383 85.4496 62.5083 85.212 62.0859C84.9744 61.6569 84.8556 61.1619 84.8556 60.6009C84.8556 60.0465 84.9777 59.5548 85.2219 59.1258C85.4661 58.6968 85.7994 58.3668 86.2218 58.1358C86.6442 57.9048 87.1161 57.7893 87.6375 57.7893C88.1589 57.7893 88.6308 57.9048 89.0532 58.1358C89.4756 58.3668 89.8089 58.6968 90.0531 59.1258C90.2973 59.5548 90.4194 60.0465 90.4194 60.6009C90.4194 61.1553 90.294 61.647 90.0432 62.076C89.7924 62.505 89.4492 62.8383 89.0136 63.0759C88.5846 63.3069 88.1094 63.4224 87.588 63.4224ZM87.588 62.4423C87.8784 62.4423 88.149 62.373 88.3998 62.2344C88.6572 62.0958 88.8651 61.8879 89.0235 61.6107C89.1819 61.3335 89.2611 60.9969 89.2611 60.6009C89.2611 60.2049 89.1852 59.8716 89.0334 59.601C88.8816 59.3238 88.6803 59.1159 88.4295 58.9773C88.1787 58.8387 87.9081 58.7694 87.6177 58.7694C87.3273 58.7694 87.0567 58.8387 86.8059 58.9773C86.5617 59.1159 86.367 59.3238 86.2218 59.601C86.0766 59.8716 86.004 60.2049 86.004 60.6009C86.004 61.1883 86.1525 61.6437 86.4495 61.9671C86.7531 62.2839 87.1326 62.4423 87.588 62.4423ZM97.5543 57.7893C97.9833 57.7893 98.3661 57.8784 98.7027 58.0566C99.0459 58.2348 99.3132 58.4988 99.5046 58.8486C99.696 59.1984 99.7917 59.6208 99.7917 60.1158V63.3333H98.673V60.2841C98.673 59.7957 98.5509 59.4228 98.3067 59.1654C98.0625 58.9014 97.7292 58.7694 97.3068 58.7694C96.8844 58.7694 96.5478 58.9014 96.297 59.1654C96.0528 59.4228 95.9307 59.7957 95.9307 60.2841V63.3333H94.8021V57.8784H95.9307V58.5021C96.1155 58.2777 96.3498 58.1028 96.6336 57.9774C96.924 57.852 97.2309 57.7893 97.5543 57.7893ZM105.736 61.977L104.538 64.7094H103.805L104.508 61.977H105.736ZM116.956 62.4225H119.283V63.3333H115.828V56.4528H116.956V62.4225ZM124.068 57.1557C123.863 57.1557 123.691 57.0864 123.553 56.9478C123.414 56.8092 123.345 56.6376 123.345 56.433C123.345 56.2284 123.414 56.0568 123.553 55.9182C123.691 55.7796 123.863 55.7103 124.068 55.7103C124.266 55.7103 124.434 55.7796 124.573 55.9182C124.711 56.0568 124.78 56.2284 124.78 56.433C124.78 56.6376 124.711 56.8092 124.573 56.9478C124.434 57.0864 124.266 57.1557 124.068 57.1557ZM124.622 57.8784V63.3333H123.493V57.8784H124.622ZM131.658 58.7991H130.648V63.3333H129.509V58.7991H128.866V57.8784H129.509V57.4923C129.509 56.8653 129.674 56.4099 130.004 56.1261C130.341 55.8357 130.866 55.6905 131.579 55.6905V56.631C131.235 56.631 130.994 56.697 130.856 56.829C130.717 56.9544 130.648 57.1755 130.648 57.4923V57.8784H131.658V58.7991ZM140.924 60.4722C140.924 60.6768 140.911 60.8616 140.885 61.0266H136.717C136.75 61.4622 136.912 61.812 137.202 62.076C137.492 62.34 137.849 62.472 138.271 62.472C138.878 62.472 139.307 62.2179 139.558 61.7097H140.776C140.611 62.2113 140.311 62.6238 139.875 62.9472C139.446 63.264 138.911 63.4224 138.271 63.4224C137.75 63.4224 137.281 63.3069 136.865 63.0759C136.456 62.8383 136.133 62.5083 135.895 62.0859C135.664 61.6569 135.549 61.1619 135.549 60.6009C135.549 60.0399 135.661 59.5482 135.885 59.1258C136.116 58.6968 136.436 58.3668 136.846 58.1358C137.261 57.9048 137.737 57.7893 138.271 57.7893C138.786 57.7893 139.245 57.9015 139.647 58.1259C140.05 58.3503 140.363 58.6671 140.588 59.0763C140.812 59.4789 140.924 59.9442 140.924 60.4722ZM139.746 60.1158C139.74 59.7 139.591 59.3667 139.301 59.1159C139.01 58.8651 138.651 58.7397 138.222 58.7397C137.832 58.7397 137.499 58.8651 137.222 59.1159C136.945 59.3601 136.78 59.6934 136.727 60.1158H139.746ZM155.586 56.4528V57.3735H153.754V63.3333H152.626V57.3735H150.784V56.4528H155.586ZM161.124 58.6704C161.289 58.3932 161.507 58.1787 161.778 58.0269C162.055 57.8685 162.382 57.7893 162.758 57.7893V58.9575H162.471C162.029 58.9575 161.692 59.0697 161.461 59.2941C161.237 59.5185 161.124 59.9079 161.124 60.4623V63.3333H159.996V57.8784H161.124V58.6704ZM166.686 60.5811C166.686 60.0333 166.798 59.5482 167.023 59.1258C167.254 58.7034 167.564 58.3767 167.953 58.1457C168.349 57.9081 168.785 57.7893 169.26 57.7893C169.689 57.7893 170.062 57.8751 170.379 58.0467C170.702 58.2117 170.96 58.4196 171.151 58.6704V57.8784H172.29V63.3333H171.151V62.5215C170.96 62.7789 170.699 62.9934 170.369 63.165C170.039 63.3366 169.663 63.4224 169.24 63.4224C168.772 63.4224 168.343 63.3036 167.953 63.066C167.564 62.8218 167.254 62.4852 167.023 62.0562C166.798 61.6206 166.686 61.1289 166.686 60.5811ZM171.151 60.6009C171.151 60.2247 171.072 59.898 170.913 59.6208C170.762 59.3436 170.56 59.1324 170.31 58.9872C170.059 58.842 169.788 58.7694 169.498 58.7694C169.207 58.7694 168.937 58.842 168.686 58.9872C168.435 59.1258 168.231 59.3337 168.072 59.6109C167.92 59.8815 167.844 60.2049 167.844 60.5811C167.844 60.9573 167.92 61.2873 168.072 61.5711C168.231 61.8549 168.435 62.0727 168.686 62.2245C168.943 62.3697 169.214 62.4423 169.498 62.4423C169.788 62.4423 170.059 62.3697 170.31 62.2245C170.56 62.0793 170.762 61.8681 170.913 61.5909C171.072 61.3071 171.151 60.9771 171.151 60.6009ZM179.791 57.7893C180.22 57.7893 180.603 57.8784 180.94 58.0566C181.283 58.2348 181.55 58.4988 181.741 58.8486C181.933 59.1984 182.029 59.6208 182.029 60.1158V63.3333H180.91V60.2841C180.91 59.7957 180.788 59.4228 180.544 59.1654C180.299 58.9014 179.966 58.7694 179.544 58.7694C179.121 58.7694 178.785 58.9014 178.534 59.1654C178.29 59.4228 178.168 59.7957 178.168 60.2841V63.3333H177.039V57.8784H178.168V58.5021C178.352 58.2777 178.587 58.1028 178.87 57.9774C179.161 57.852 179.468 57.7893 179.791 57.7893ZM188.715 63.4224C188.286 63.4224 187.9 63.3465 187.557 63.1947C187.22 63.0363 186.953 62.8251 186.755 62.5611C186.557 62.2905 186.451 61.9902 186.438 61.6602H187.606C187.626 61.8912 187.735 62.0859 187.933 62.2443C188.138 62.3961 188.392 62.472 188.695 62.472C189.012 62.472 189.256 62.4126 189.428 62.2938C189.606 62.1684 189.695 62.01 189.695 61.8186C189.695 61.614 189.596 61.4622 189.398 61.3632C189.207 61.2642 188.9 61.1553 188.478 61.0365C188.068 60.9243 187.735 60.8154 187.478 60.7098C187.22 60.6042 186.996 60.4425 186.804 60.2247C186.62 60.0069 186.527 59.7198 186.527 59.3634C186.527 59.073 186.613 58.809 186.785 58.5714C186.956 58.3272 187.2 58.1358 187.517 57.9972C187.841 57.8586 188.21 57.7893 188.626 57.7893C189.246 57.7893 189.745 57.9477 190.121 58.2645C190.504 58.5747 190.708 59.0004 190.735 59.5416H189.606C189.586 59.2974 189.487 59.1027 189.309 58.9575C189.131 58.8123 188.89 58.7397 188.586 58.7397C188.289 58.7397 188.062 58.7958 187.903 58.908C187.745 59.0202 187.666 59.1687 187.666 59.3535C187.666 59.4987 187.719 59.6208 187.824 59.7198C187.93 59.8188 188.058 59.898 188.21 59.9574C188.362 60.0102 188.586 60.0795 188.883 60.1653C189.279 60.2709 189.603 60.3798 189.854 60.492C190.111 60.5976 190.332 60.756 190.517 60.9672C190.702 61.1784 190.797 61.4589 190.804 61.8087C190.804 62.1189 190.718 62.3961 190.547 62.6403C190.375 62.8845 190.131 63.0759 189.814 63.2145C189.504 63.3531 189.138 63.4224 188.715 63.4224ZM197.577 58.7991H196.568V63.3333H195.429V58.7991H194.786V57.8784H195.429V57.4923C195.429 56.8653 195.594 56.4099 195.924 56.1261C196.261 55.8357 196.785 55.6905 197.498 55.6905V56.631C197.155 56.631 196.914 56.697 196.776 56.829C196.637 56.9544 196.568 57.1755 196.568 57.4923V57.8784H197.577V58.7991ZM204.211 63.4224C203.696 63.4224 203.231 63.3069 202.815 63.0759C202.399 62.8383 202.072 62.5083 201.835 62.0859C201.597 61.6569 201.478 61.1619 201.478 60.6009C201.478 60.0465 201.6 59.5548 201.845 59.1258C202.089 58.6968 202.422 58.3668 202.845 58.1358C203.267 57.9048 203.739 57.7893 204.26 57.7893C204.782 57.7893 205.254 57.9048 205.676 58.1358C206.098 58.3668 206.432 58.6968 206.676 59.1258C206.92 59.5548 207.042 60.0465 207.042 60.6009C207.042 61.1553 206.917 61.647 206.666 62.076C206.415 62.505 206.072 62.8383 205.636 63.0759C205.207 63.3069 204.732 63.4224 204.211 63.4224ZM204.211 62.4423C204.501 62.4423 204.772 62.373 205.023 62.2344C205.28 62.0958 205.488 61.8879 205.646 61.6107C205.805 61.3335 205.884 60.9969 205.884 60.6009C205.884 60.2049 205.808 59.8716 205.656 59.601C205.504 59.3238 205.303 59.1159 205.052 58.9773C204.801 58.8387 204.531 58.7694 204.24 58.7694C203.95 58.7694 203.679 58.8387 203.429 58.9773C203.184 59.1159 202.99 59.3238 202.845 59.601C202.699 59.8716 202.627 60.2049 202.627 60.6009C202.627 61.1883 202.775 61.6437 203.072 61.9671C203.376 62.2839 203.755 62.4423 204.211 62.4423ZM212.553 58.6704C212.718 58.3932 212.936 58.1787 213.207 58.0269C213.484 57.8685 213.811 57.7893 214.187 57.7893V58.9575H213.9C213.458 58.9575 213.121 59.0697 212.89 59.2941C212.666 59.5185 212.553 59.9079 212.553 60.4623V63.3333H211.425V57.8784H212.553V58.6704ZM225.095 57.7893C225.524 57.7893 225.906 57.8784 226.243 58.0566C226.586 58.2348 226.854 58.4988 227.045 58.8486C227.243 59.1984 227.342 59.6208 227.342 60.1158V63.3333H226.223V60.2841C226.223 59.7957 226.101 59.4228 225.857 59.1654C225.613 58.9014 225.279 58.7694 224.857 58.7694C224.435 58.7694 224.098 58.9014 223.847 59.1654C223.603 59.4228 223.481 59.7957 223.481 60.2841V63.3333H222.362V60.2841C222.362 59.7957 222.24 59.4228 221.996 59.1654C221.752 58.9014 221.418 58.7694 220.996 58.7694C220.574 58.7694 220.237 58.9014 219.986 59.1654C219.742 59.4228 219.62 59.7957 219.62 60.2841V63.3333H218.491V57.8784H219.62V58.5021C219.805 58.2777 220.039 58.1028 220.323 57.9774C220.607 57.852 220.91 57.7893 221.234 57.7893C221.669 57.7893 222.059 57.8817 222.402 58.0665C222.745 58.2513 223.009 58.5186 223.194 58.8684C223.359 58.5384 223.616 58.2777 223.966 58.0863C224.316 57.8883 224.692 57.7893 225.095 57.7893ZM231.669 60.5811C231.669 60.0333 231.781 59.5482 232.005 59.1258C232.236 58.7034 232.547 58.3767 232.936 58.1457C233.332 57.9081 233.768 57.7893 234.243 57.7893C234.672 57.7893 235.045 57.8751 235.362 58.0467C235.685 58.2117 235.942 58.4196 236.134 58.6704V57.8784H237.272V63.3333H236.134V62.5215C235.942 62.7789 235.682 62.9934 235.352 63.165C235.022 63.3366 234.645 63.4224 234.223 63.4224C233.754 63.4224 233.325 63.3036 232.936 63.066C232.547 62.8218 232.236 62.4852 232.005 62.0562C231.781 61.6206 231.669 61.1289 231.669 60.5811ZM236.134 60.6009C236.134 60.2247 236.055 59.898 235.896 59.6208C235.744 59.3436 235.543 59.1324 235.292 58.9872C235.041 58.842 234.771 58.7694 234.48 58.7694C234.19 58.7694 233.919 58.842 233.669 58.9872C233.418 59.1258 233.213 59.3337 233.055 59.6109C232.903 59.8815 232.827 60.2049 232.827 60.5811C232.827 60.9573 232.903 61.2873 233.055 61.5711C233.213 61.8549 233.418 62.0727 233.669 62.2245C233.926 62.3697 234.197 62.4423 234.48 62.4423C234.771 62.4423 235.041 62.3697 235.292 62.2245C235.543 62.0793 235.744 61.8681 235.896 61.5909C236.055 61.3071 236.134 60.9771 236.134 60.6009ZM243.338 58.7991V61.8186C243.338 62.0232 243.385 62.1717 243.477 62.2641C243.576 62.3499 243.741 62.3928 243.972 62.3928H244.665V63.3333H243.774C243.266 63.3333 242.876 63.2145 242.606 62.9769C242.335 62.7393 242.2 62.3532 242.2 61.8186V58.7991H241.556V57.8784H242.2V56.5221H243.338V57.8784H244.665V58.7991H243.338ZM249.546 57.1557C249.342 57.1557 249.17 57.0864 249.032 56.9478C248.893 56.8092 248.824 56.6376 248.824 56.433C248.824 56.2284 248.893 56.0568 249.032 55.9182C249.17 55.7796 249.342 55.7103 249.546 55.7103C249.744 55.7103 249.913 55.7796 250.051 55.9182C250.19 56.0568 250.259 56.2284 250.259 56.433C250.259 56.6376 250.19 56.8092 250.051 56.9478C249.913 57.0864 249.744 57.1557 249.546 57.1557ZM250.101 57.8784V63.3333H248.972V57.8784H250.101ZM257.216 63.4224C256.701 63.4224 256.235 63.3069 255.82 63.0759C255.404 62.8383 255.077 62.5083 254.84 62.0859C254.602 61.6569 254.483 61.1619 254.483 60.6009C254.483 60.0465 254.605 59.5548 254.849 59.1258C255.094 58.6968 255.427 58.3668 255.849 58.1358C256.272 57.9048 256.744 57.7893 257.265 57.7893C257.786 57.7893 258.258 57.9048 258.681 58.1358C259.103 58.3668 259.436 58.6968 259.681 59.1258C259.925 59.5548 260.047 60.0465 260.047 60.6009C260.047 61.1553 259.922 61.647 259.671 62.076C259.42 62.505 259.077 62.8383 258.641 63.0759C258.212 63.3069 257.737 63.4224 257.216 63.4224ZM257.216 62.4423C257.506 62.4423 257.777 62.373 258.027 62.2344C258.285 62.0958 258.493 61.8879 258.651 61.6107C258.809 61.3335 258.889 60.9969 258.889 60.6009C258.889 60.2049 258.813 59.8716 258.661 59.601C258.509 59.3238 258.308 59.1159 258.057 58.9773C257.806 58.8387 257.536 58.7694 257.245 58.7694C256.955 58.7694 256.684 58.8387 256.433 58.9773C256.189 59.1159 255.995 59.3238 255.849 59.601C255.704 59.8716 255.632 60.2049 255.632 60.6009C255.632 61.1883 255.78 61.6437 256.077 61.9671C256.381 62.2839 256.76 62.4423 257.216 62.4423ZM267.182 57.7893C267.611 57.7893 267.994 57.8784 268.33 58.0566C268.673 58.2348 268.941 58.4988 269.132 58.8486C269.324 59.1984 269.419 59.6208 269.419 60.1158V63.3333H268.301V60.2841C268.301 59.7957 268.178 59.4228 267.934 59.1654C267.69 58.9014 267.357 58.7694 266.934 58.7694C266.512 58.7694 266.175 58.9014 265.925 59.1654C265.68 59.4228 265.558 59.7957 265.558 60.2841V63.3333H264.43V57.8784H265.558V58.5021C265.743 58.2777 265.977 58.1028 266.261 57.9774C266.552 57.852 266.858 57.7893 267.182 57.7893Z" fill="white"></path>
  <path d="M1.5 27.8001C2.5 36.1001 6.59996 40.2001 13.9 40.2001C16.1 40.2001 17.9 39.5001 19.2 38.0001C20.5 36.5001 21.2 34.6001 21.2 32.2001C21.2 30.5001 20.6 28.9001 19.4 27.6001C18.2 26.3001 16.6 25.2001 14.5 24.4001L7.69995 21.6001C5.29995 20.6001 3.39995 19.3001 2.19995 17.6001C0.899951 15.9001 0.299988 14.0001 0.299988 11.8001C0.299988 9.80008 0.799951 7.9001 1.69995 6.2001C2.59995 4.5001 3.99996 3.1001 5.89996 2.1001C7.79996 1.1001 9.99995 0.600098 12.7 0.600098C14.1 0.600098 15.4 0.700092 16.4 1.00009C17.4 1.20009 18.4 1.50009 19.4 1.90009C20.4 2.20009 21.1 2.5001 21.4 2.6001C22.1 2.9001 22.7 3.00009 23.2 3.00009C24 3.00009 24.7 2.9001 25.1 2.7001C25 3.8001 24.9 5.5001 24.9 7.7001C24.9 9.0001 24.9 10.0001 25 10.6001C25 11.2001 25.2 11.7001 25.3 12.2001H23.6C23.6 9.3001 22.6 6.9001 20.7 5.1001C18.8 3.3001 16.4 2.40009 13.6 2.40009C11.3 2.40009 9.4 3.00008 8 4.30008C6.6 5.60008 5.89996 7.4001 5.89996 9.6001C5.89996 11.1001 6.39996 12.4001 7.39996 13.6001C8.39996 14.8001 9.79998 15.7001 11.6 16.5001L17.8 19.0001C21.2 20.4001 23.6 21.9001 25.1 23.6001C26.6 25.3001 27.3 27.4001 27.3 30.1001C27.3 32.4001 26.7 34.5001 25.6 36.3001C24.5 38.1001 22.9 39.5001 21 40.5001C19.1 41.5001 16.9 42.0001 14.7 42.0001C13.3 42.0001 12.1 41.9001 11.1 41.8001C10.1 41.7001 8.99999 41.5001 7.79999 41.1001C5.39999 40.4001 3.7 40.1001 2.5 40.1001C2.1 40.1001 1.69995 40.1001 1.19995 40.2001C0.799951 40.3001 0.399951 40.4001 0.199951 40.4001C0.399951 39.5001 0.5 37.6001 0.5 34.8001C0.5 31.2001 0.3 28.8001 0 27.6001H1.5V27.8001Z" fill="#E4EBE2"></path>
  <path d="M46.5996 39.5001L49.1996 39.6001C49.9996 39.6001 50.4996 39.1001 50.4996 38.1001V4.60007C50.4996 4.20007 50.3996 3.90007 50.1996 3.60007C49.9996 3.30007 49.6996 3.20007 49.2996 3.20007L46.6996 3.30005V1.30005H60.7996V3.30005L58.1996 3.20007H58.0996C57.6996 3.20007 57.4996 3.30007 57.1996 3.60007C56.9996 3.90007 56.8996 4.20007 56.8996 4.60007V38.1001C56.8996 39.1001 57.2996 39.6001 58.1996 39.6001L60.7996 39.5001V41.4001H46.5996V39.5001Z" fill="#E4EBE2"></path>
  <path d="M118.9 1.40015V3.40015L116.3 3.30014H116.2C115.4 3.30014 115.1 3.80016 115.1 4.70016V41.9001H113.1L86.8996 6.30014V38.3001C86.8996 39.3001 87.2996 39.8001 88.1996 39.8001L91.4996 39.7002V41.6002H80.6996V39.7002L83.2996 39.8001C84.1996 39.8001 84.5996 39.3001 84.5996 38.3001V4.80014C84.5996 4.40014 84.4996 4.10014 84.1996 3.80014C83.9996 3.50014 83.5996 3.40015 83.1996 3.40015L80.5996 3.50015V1.50015H90.9996L112.8 31.2002V4.80014C112.8 3.90014 112.4 3.50015 111.7 3.50015H111.5L108.2 3.60016V1.60016H118.9V1.40015Z" fill="#E4EBE2"></path>
  <path d="M138.7 39.4002L141.4 39.6002C142.2 39.6002 142.6 39.1002 142.6 38.1002V4.60019C142.6 4.20019 142.5 3.90019 142.2 3.60019C142 3.30019 141.6 3.2002 141.2 3.2002L138.6 3.30017V1.30017H166.9C167.5 1.30017 167.9 1.3002 168 1.2002V11.6002H166.2C166.2 8.60019 165.4 6.40019 164 5.10019C162.5 3.80019 160.1 3.10019 156.7 3.10019H149.6C149.1 3.10019 148.8 3.40018 148.8 4.00018V19.4002H155.1C156.6 19.4002 157.9 18.8002 158.8 17.6002C159.7 16.4002 160.2 14.7002 160.2 12.6002H162V28.1002H160.2C160.2 26.1002 159.7 24.5002 158.7 23.2002C157.7 21.9002 156.5 21.3002 155.1 21.3002H148.8V38.5002C148.8 39.1002 149.1 39.4002 149.6 39.4002H159C162 39.4002 164.4 38.5002 165.9 36.8002C167.5 35.1002 168.3 32.5002 168.3 29.3002H170.1V41.5002C169.1 41.4002 167.1 41.3002 164.2 41.3002H138.6V39.4002H138.7Z" fill="#5A7C6C"></path>
  <path d="M227.101 1.40015V3.40015L224.701 3.30014C224.301 3.30014 224.101 3.30016 223.901 3.60016C223.701 3.80016 223.501 4.20015 223.301 4.90015L207.301 41.8001H205.601L189.701 4.90015C189.201 3.90015 188.701 3.40015 188.201 3.40015L186.301 3.50015V1.50015H200.701V3.50015L197.101 3.40015C196.901 3.40015 196.701 3.50016 196.601 3.70016C196.501 3.90016 196.401 4.10015 196.401 4.40015C196.401 4.50015 196.401 4.70015 196.501 5.00015L208.701 32.9001L220.401 5.70016C220.701 4.90016 220.901 4.40016 220.901 4.10016C220.901 3.60016 220.601 3.40015 220.101 3.40015L216.701 3.50015V1.50015H227.101V1.40015Z" fill="#5A7C6C"></path>
  <path d="M274.5 39.5001V41.4001H256.7V39.5001L260 39.6001C261.3 39.7001 262 39.2001 262 38.0001C262 37.2001 261.8 36.4001 261.3 35.4001L258 27.5001H242.4L239.3 35.0001C238.7 36.4001 238.4 37.5001 238.4 38.4001C238.4 39.3001 238.9 39.8001 239.9 39.7001L243.1 39.5001V41.4001H231.5V39.5001L233.2 39.6001H233.5C234.4 39.6001 235.1 39.2001 235.7 38.3001C236.4 37.3001 237 36.0001 237.7 34.4001L251.7 0.600098H253.4L267.6 34.5001C268.2 36.1001 268.9 37.4001 269.5 38.3001C270.1 39.1001 270.9 39.5001 271.8 39.5001H272.1H274.5ZM243.3 25.6001H257.3L250.3 8.7001L243.3 25.6001Z" fill="#A8C4BB"></path>
</svg>
